<svg width="136" height="37" viewBox="0 0 136 37" fill="none" xmlns="http://www.w3.org/2000/svg">
<path fill-rule="evenodd" clip-rule="evenodd" d="M16.4357 36.8369C24.1866 36.8369 29.1738 34.5493 29.1738 34.5493V18.4757H20.882V28.2884C20.0408 28.469 18.1182 28.8302 16.4357 28.8302C12.5302 28.8302 9.46587 25.7599 9.46587 18.8971C9.46587 12.5761 11.8693 9.02427 16.4357 9.02427C20.5215 9.02427 22.7446 9.86705 24.9077 10.8302L27.7918 3.66635C25.4485 2.28173 21.5429 0.836914 16.5559 0.836914C6.3415 0.836914 0.633301 7.2182 0.633301 18.8971C0.633301 29.7934 6.3415 36.8369 16.4357 36.8369ZM127.352 2.04093V10.77C126.813 10.5895 124.949 9.98741 122.666 9.98741C115.335 9.98741 111.43 15.6463 111.43 23.4121C111.43 30.9373 115.757 36.6562 124.469 36.6562C129.756 36.6562 135.283 35.1513 135.283 35.1513V0.836914L127.352 2.04093ZM124.469 29.6731C120.683 29.6731 119.361 26.4222 119.361 23.051C119.361 16.9707 122.605 16.8503 123.688 16.8503C125.369 16.8503 126.992 17.3921 127.352 17.5726V29.4924C127.113 29.5526 125.069 29.6731 124.469 29.6731ZM105.181 16.8503C106.804 16.8503 108.246 17.0911 109.146 17.2717L111.731 10.9506C110.409 10.469 108.065 9.92723 105.362 9.92723C99.5337 9.92723 94.967 11.8537 94.967 11.8537V35.8135H102.838V17.0911C103.079 17.0309 103.92 16.8503 105.181 16.8503ZM87.5166 12.7566C86.6751 11.7935 84.0314 9.74656 78.4434 9.74656C75.8599 9.74656 72.9757 10.168 71.3535 10.5895V17.4523C72.495 17.0911 74.9585 16.5493 77.6624 16.5493C79.2245 16.5493 80.7868 17.0309 81.3876 17.6329C81.9885 18.2349 82.2889 18.9573 82.2889 19.9808C81.9885 19.9205 80.3062 19.6797 78.2633 19.6797C71.9544 19.6797 67.3278 22.5091 67.3278 27.9874C67.3278 34.0677 71.6539 36.4757 78.4434 36.4757C84.2117 36.4757 89.8591 35.1513 89.8591 35.1513V20.2817C89.9197 17.5125 89.3785 14.8637 87.5166 12.7566ZM78.9242 30.0945C80.7868 30.0945 82.2889 29.9138 82.2889 29.9138H82.3491V25.459C82.3491 25.459 81.0271 25.2783 79.5851 25.2783C76.701 25.2783 75.1988 26.1814 75.1988 27.7467C75.1988 29.8536 77.1817 30.0945 78.9242 30.0945ZM58.2549 10.469H66.787C66.787 10.469 64.9844 17.6931 63.242 24.3152C61.4394 31.1178 59.9974 35.8135 59.9974 35.8135H53.0876C53.0876 35.8135 51.2249 30.6362 50.4439 28.2282C50.2889 27.7452 50.129 27.2571 49.9684 26.767L49.9683 26.7668C49.5685 25.5467 49.1645 24.3136 48.8216 23.1112C48.5814 23.9532 48.3113 24.8102 48.0412 25.6673L48.0411 25.6674C47.7705 26.526 47.4999 27.3846 47.2594 28.2282C46.5383 30.5761 44.6757 35.8135 44.6757 35.8135H37.9462C37.9462 35.8135 36.4441 30.8168 34.5815 24.3152C32.5986 17.5125 31.0364 10.469 31.0364 10.469H39.6887C39.6887 10.469 42.1521 22.8703 42.3324 23.5928C42.5727 22.8102 45.8774 10.469 45.8774 10.469H51.946C51.946 10.469 55.3708 22.8102 55.6112 23.5928C55.7314 22.8703 58.2549 10.469 58.2549 10.469Z" fill="#931222"/>
</svg>
