<svg width="9" height="13" viewBox="0 0 9 13" fill="none" xmlns="http://www.w3.org/2000/svg">
<path d="M3.90356 8.288C3.90356 7.89333 3.96756 7.54667 4.09556 7.248C4.22356 6.94933 4.3889 6.68267 4.59156 6.448C4.79423 6.21333 5.00756 5.99467 5.23156 5.792C5.46623 5.58933 5.6849 5.392 5.88756 5.2C6.09023 5.008 6.25556 4.80533 6.38356 4.592C6.51156 4.37867 6.57556 4.13867 6.57556 3.872C6.57556 3.424 6.39423 3.06133 6.03156 2.784C5.6689 2.50667 5.18356 2.368 4.57556 2.368C3.9889 2.368 3.4769 2.47467 3.03956 2.688C2.6129 2.90133 2.25556 3.20533 1.96756 3.6L0.415563 2.592C0.863563 1.984 1.45023 1.50933 2.17556 1.168C2.9009 0.815999 3.75956 0.639999 4.75156 0.639999C5.53023 0.639999 6.2129 0.757333 6.79956 0.992C7.38623 1.216 7.8449 1.54667 8.17556 1.984C8.50623 2.41067 8.67156 2.93333 8.67156 3.552C8.67156 3.97867 8.60223 4.352 8.46356 4.672C8.33556 4.992 8.1649 5.27467 7.95156 5.52C7.7489 5.75467 7.53023 5.97867 7.29556 6.192C7.0609 6.39467 6.8369 6.59733 6.62356 6.8C6.4209 7.00267 6.25556 7.22133 6.12756 7.456C5.99956 7.69067 5.93556 7.968 5.93556 8.288H3.90356ZM4.92756 12.112C4.55423 12.112 4.2449 11.9893 3.99956 11.744C3.7649 11.4987 3.64756 11.2053 3.64756 10.864C3.64756 10.5227 3.7649 10.2347 3.99956 10C4.2449 9.75467 4.55423 9.632 4.92756 9.632C5.3009 9.632 5.6049 9.75467 5.83956 10C6.07423 10.2347 6.19156 10.5227 6.19156 10.864C6.19156 11.2053 6.07423 11.4987 5.83956 11.744C5.6049 11.9893 5.3009 12.112 4.92756 12.112Z" fill="#DA7B7B"/>
</svg>
