<svg width="25" height="24" viewBox="0 0 25 24" fill="none" xmlns="http://www.w3.org/2000/svg">
<path fill-rule="evenodd" clip-rule="evenodd" d="M24.6172 21.0964C24.6172 19.1673 23.3041 17.4859 21.433 17.0185L16.8353 15.8695L16.8415 15.2833C16.8467 14.7569 17.0655 14.2325 17.464 13.7958C18.7763 12.3574 19.4163 10.9712 19.6241 9.35909C19.7022 8.75304 19.7169 8.29281 19.7169 7.25245C19.7169 3.27444 16.5865 0.0724969 12.6408 0C8.64805 0.0724936 5.51751 3.27426 5.51751 7.25147C5.51751 8.29184 5.53218 8.75207 5.6103 9.35811C5.8181 10.9702 6.45806 12.3564 7.77031 13.7947C8.1689 14.2315 8.38763 14.7559 8.3929 15.2817L8.39908 15.8685L3.80125 17.0175C1.9298 17.4864 0.617188 19.1677 0.617188 21.0964V22.7143C0.617188 23.4244 1.19282 24 1.9029 24H23.3315C24.0416 24 24.6172 23.4244 24.6172 22.7143V21.0964ZM20.8867 19.5839C21.6199 19.7671 22.1344 20.426 22.1344 21.182V21.5172H3.09995V21.182C3.09995 20.4259 3.61472 19.7666 4.34842 19.5828L9.23014 18.3628C10.2541 18.1074 10.9689 17.1815 10.9575 16.1262L10.9486 15.286C10.9367 14.0978 10.4628 12.9616 9.64212 12.0623C8.67781 11.0054 8.26047 10.1014 8.11872 9.00171C8.05882 8.53702 8.04636 8.14605 8.04636 7.20713C8.04636 4.60514 10.0755 2.5299 12.641 2.48276C15.159 2.5299 17.188 4.60526 17.188 7.20812C17.188 8.14704 17.1756 8.538 17.1157 9.00269C16.9739 10.1024 16.5566 11.0064 15.5922 12.0633C14.7716 12.9626 14.2976 14.0988 14.2857 15.2876L14.2769 16.1276C14.2655 17.1833 14.9801 18.1084 16.0048 18.364L20.8867 19.5839Z" fill="#931222"/>
</svg>
