<svg width="27" height="26" viewBox="0 0 27 26" fill="none" xmlns="http://www.w3.org/2000/svg">
<path fill-rule="evenodd" clip-rule="evenodd" d="M11.5084 2.82152L9.38706 0.700195L6.12425 3.9622L2.86157 0.700195L0.740254 2.82152L4.00225 6.0842L0.740254 9.347L2.86157 11.4683L6.12425 8.2052L9.38706 11.4683L11.5084 9.347L8.24525 6.0842L11.5084 2.82152ZM26.1403 7.7002V4.7002L21.9238 4.69963L21.9237 0.700195H18.9237L18.9235 4.70033L14.7403 4.7002V7.7002L18.9235 7.69988L18.9237 12.1002H21.9237L21.9238 7.70059L26.1403 7.7002ZM11.8243 19.0616V22.0616H0.424316V19.0616H11.8243ZM25.2243 24.9457V21.9457H22.1744V24.9457H25.2243ZM24.0189 15.1776L26.1403 17.2989L17.4935 25.9457L15.3721 23.8244L24.0189 15.1776ZM19.5061 19.0616V16.0616H16.4562V19.0616H19.5061Z" fill="#342A2A"/>
</svg>
