<svg width="24" height="29" viewBox="0 0 24 29" fill="none" xmlns="http://www.w3.org/2000/svg">
<path fill-rule="evenodd" clip-rule="evenodd" d="M7.5 0C9.15685 0 10.5 1.34315 10.5 3V10C10.5 11.6569 9.15685 13 7.5 13H3.5C1.84315 13 0.5 11.6569 0.5 10V3C0.5 1.34315 1.84315 0 3.5 0H7.5ZM7.5 2.5H3.5C3.25454 2.5 3.05039 2.67688 3.00806 2.91012L3 3V10C3 10.2455 3.17688 10.4496 3.41012 10.4919L3.5 10.5H7.5C7.74546 10.5 7.94961 10.3231 7.99194 10.0899L8 10V3C8 2.75454 7.82312 2.55039 7.58988 2.50806L7.5 2.5ZM7.5 16C9.15685 16 10.5 17.3431 10.5 19V26C10.5 27.6569 9.15685 29 7.5 29H3.5C1.84315 29 0.5 27.6569 0.5 26V19C0.5 17.3431 1.84315 16 3.5 16H7.5ZM7.5 18.5H3.5C3.25454 18.5 3.05039 18.6769 3.00806 18.9101L3 19V26C3 26.2455 3.17688 26.4496 3.41012 26.4919L3.5 26.5H7.5C7.74546 26.5 7.94961 26.3231 7.99194 26.0899L8 26V19C8 18.7545 7.82312 18.5504 7.58988 18.5081L7.5 18.5ZM23.5 3C23.5 1.34315 22.1569 0 20.5 0H16.5C14.8431 0 13.5 1.34315 13.5 3V10C13.5 11.6569 14.8431 13 16.5 13H20.5C22.1569 13 23.5 11.6569 23.5 10V3ZM16.5 2.5H20.5L20.5899 2.50806C20.8231 2.55039 21 2.75454 21 3V10L20.9919 10.0899C20.9496 10.3231 20.7455 10.5 20.5 10.5H16.5L16.4101 10.4919C16.1769 10.4496 16 10.2455 16 10V3L16.0081 2.91012C16.0504 2.67688 16.2545 2.5 16.5 2.5ZM20.5 16C22.1569 16 23.5 17.3431 23.5 19V26C23.5 27.6569 22.1569 29 20.5 29H16.5C14.8431 29 13.5 27.6569 13.5 26V19C13.5 17.3431 14.8431 16 16.5 16H20.5ZM20.5 18.5H16.5C16.2545 18.5 16.0504 18.6769 16.0081 18.9101L16 19V26C16 26.2455 16.1769 26.4496 16.4101 26.4919L16.5 26.5H20.5C20.7455 26.5 20.9496 26.3231 20.9919 26.0899L21 26V19C21 18.7545 20.8231 18.5504 20.5899 18.5081L20.5 18.5Z" fill="#342A2A"/>
</svg>
