<svg width="24" height="28" viewBox="0 0 24 28" fill="none" xmlns="http://www.w3.org/2000/svg">
<path fill-rule="evenodd" clip-rule="evenodd" d="M14.701 13.7431C13.3677 12.3173 12.0842 10.9448 10.769 9.53839V13.7431H14.701ZM8.00951 5.00131C8.58038 5.00131 9.13054 4.98891 9.67944 5.00957C9.82475 5.01508 10.0063 5.08464 10.1036 5.18826C12.8414 8.10331 15.5721 11.0249 18.2949 13.954C18.4065 14.0741 18.4846 14.2761 18.4857 14.4406C18.4988 16.3466 18.4941 18.2527 18.4941 20.1588C18.4941 20.2684 18.4941 20.378 18.4941 20.4788H20.9747V2.51044H8.00951V5.00131ZM3.00536 25.4841H15.9784V16.2304H8.23766V7.5154H3.00536V25.4841ZM5.50061 5.00131C5.50061 4.02134 5.4998 3.08526 5.50086 2.14912C5.5023 0.836819 6.33651 0.000915857 7.648 0.000665418C12.22 -0.000148509 16.792 -0.000336338 21.364 0.000790637C22.6543 0.00110369 23.4936 0.842266 23.4938 2.13516C23.4947 8.3746 23.4946 14.614 23.4938 20.8535C23.4937 22.1636 22.6567 22.9965 21.3425 22.9979C20.4069 22.9989 19.4713 22.998 18.4941 22.998C18.4941 23.1297 18.4941 23.24 18.4941 23.3503C18.4941 24.2149 18.4977 25.0794 18.4932 25.944C18.4869 27.1322 17.628 27.9967 16.4404 27.9976C11.8163 28.0009 7.19226 28.0006 2.56816 27.9978C1.36129 27.9971 0.502097 27.1358 0.501659 25.9267C0.499405 19.6456 0.49953 13.3645 0.501534 7.08339C0.50191 5.85687 1.35973 5.00556 2.58969 5.00187C3.54612 4.99905 4.50261 5.00131 5.50061 5.00131V5.00131Z" fill="#1D1D1B"/>
</svg>
