<svg width="26" height="23" viewBox="0 0 26 23" fill="none" xmlns="http://www.w3.org/2000/svg">
<path fill-rule="evenodd" clip-rule="evenodd" d="M18.3507 1.47101C17.9892 0.868598 17.3382 0.5 16.6357 0.5H10.0144C9.33094 0.5 8.69482 0.848989 8.3276 1.4254L6.32133 4.5746C5.95412 5.15101 5.31799 5.5 4.63455 5.5H2.76807C1.6635 5.5 0.768066 6.39543 0.768066 7.5V21C0.768066 22.1046 1.6635 23 2.76807 23H23.7321C24.8367 23 25.7321 22.1046 25.7321 21V7.5C25.7321 6.39543 24.8367 5.5 23.7321 5.5H21.9004C21.1979 5.5 20.5469 5.1314 20.1855 4.52899L18.3507 1.47101ZM10.2881 3H16.3521L18.0417 5.81523L18.1685 6.01456C19.0018 7.25152 20.3988 8 21.9004 8H23.2321V20.5H3.26807V8H4.63455L4.86435 7.99414C6.31391 7.9202 7.64489 7.14993 8.42981 5.91786L10.2881 3ZM13.2501 7C16.5638 7 19.2501 9.68629 19.2501 13C19.2501 16.3137 16.5638 19 13.2501 19C9.93639 19 7.2501 16.3137 7.2501 13C7.2501 9.68629 9.93639 7 13.2501 7ZM9.7501 13C9.7501 11.067 11.3171 9.5 13.2501 9.5C15.1831 9.5 16.7501 11.067 16.7501 13C16.7501 14.933 15.1831 16.5 13.2501 16.5C11.3171 16.5 9.7501 14.933 9.7501 13Z" fill="#342A2A"/>
</svg>
