<svg width="24" height="26" viewBox="0 0 24 26" fill="none" xmlns="http://www.w3.org/2000/svg">
<path fill-rule="evenodd" clip-rule="evenodd" d="M8.0885 0.592449C9.7633 0.850111 11.2228 1.7077 12.467 3.16521C14.1521 1.67854 15.7367 0.820793 17.221 0.592449C18.7684 0.354378 20.5475 0.528737 22.558 1.11553C23.4116 1.3627 23.9989 2.14409 24 3.03276V22.3548C24.0013 23.4593 23.107 24.3559 22.0024 24.3572L21.8783 24.3537C20.3334 24.2617 18.7446 24.3413 17.1119 24.5924C16.0137 24.7614 14.99 25.1342 14.0408 25.7109C13.2774 26.1746 12.3267 26.0677 11.687 25.511C11.6253 25.5171 11.5624 25.52 11.4988 25.52C11.1687 25.52 10.8438 25.4378 10.5534 25.2808C9.92058 24.9403 9.21944 24.7108 8.44995 24.5924C6.71776 24.326 4.77753 24.2613 2.62926 24.3984C1.527 24.4699 0.575568 23.6342 0.504181 22.5319L0.5 22.4053V3.06083C0.500354 2.16215 1.10009 1.37405 1.96629 1.13463C4.25802 0.497831 6.29876 0.317105 8.0885 0.592449ZM17.6011 3.06338C16.5218 3.22943 15.1728 4.01724 13.6147 5.50542L13.5 5.61577V23.1538L13.8779 22.9722C14.6531 22.6181 15.4642 22.3586 16.3075 22.1952L16.7318 22.1215C18.311 21.8786 19.8603 21.7805 21.3738 21.8283L21.5 21.8338V3.41477L21.153 3.32649C19.7759 2.99133 18.592 2.91094 17.6011 3.06338ZM10.9086 5.21962L11 5.34777V22.7278L10.704 22.609C10.1089 22.3842 9.48357 22.2221 8.83009 22.1215L8.30135 22.0465C6.70033 21.8381 4.96622 21.7799 3.09777 21.8685L2.999 21.8728L3 3.44577L3.40672 3.34609C5.05186 2.96245 6.48463 2.87511 7.70836 3.06338L7.93078 3.10367C9.03421 3.33431 10.0084 4.00488 10.9086 5.21962Z" fill="#342A2A"/>
</svg>
