<svg width="24" height="24" viewBox="0 0 24 24" fill="none" xmlns="http://www.w3.org/2000/svg">
<g clip-path="url(#clip0_0_4332)">
<rect width="24" height="24" rx="5" fill="#D9D9D9"/>
<g filter="url(#filter0_d_0_4332)">
<path d="M10.9036 14.288C10.9036 13.8933 10.9676 13.5467 11.0956 13.248C11.2236 12.9493 11.3889 12.6827 11.5916 12.448C11.7942 12.2133 12.0076 11.9947 12.2316 11.792C12.4662 11.5893 12.6849 11.392 12.8876 11.2C13.0902 11.008 13.2556 10.8053 13.3836 10.592C13.5116 10.3787 13.5756 10.1387 13.5756 9.872C13.5756 9.424 13.3942 9.06133 13.0316 8.784C12.6689 8.50667 12.1836 8.368 11.5756 8.368C10.9889 8.368 10.4769 8.47467 10.0396 8.688C9.6129 8.90133 9.25556 9.20533 8.96756 9.6L7.41556 8.592C7.86356 7.984 8.45023 7.50933 9.17556 7.168C9.9009 6.816 10.7596 6.64 11.7516 6.64C12.5302 6.64 13.2129 6.75733 13.7996 6.992C14.3862 7.216 14.8449 7.54667 15.1756 7.984C15.5062 8.41067 15.6716 8.93333 15.6716 9.552C15.6716 9.97867 15.6022 10.352 15.4636 10.672C15.3356 10.992 15.1649 11.2747 14.9516 11.52C14.7489 11.7547 14.5302 11.9787 14.2956 12.192C14.0609 12.3947 13.8369 12.5973 13.6236 12.8C13.4209 13.0027 13.2556 13.2213 13.1276 13.456C12.9996 13.6907 12.9356 13.968 12.9356 14.288H10.9036ZM11.9276 18.112C11.5542 18.112 11.2449 17.9893 10.9996 17.744C10.7649 17.4987 10.6476 17.2053 10.6476 16.864C10.6476 16.5227 10.7649 16.2347 10.9996 16C11.2449 15.7547 11.5542 15.632 11.9276 15.632C12.3009 15.632 12.6049 15.7547 12.8396 16C13.0742 16.2347 13.1916 16.5227 13.1916 16.864C13.1916 17.2053 13.0742 17.4987 12.8396 17.744C12.6049 17.9893 12.3009 18.112 11.9276 18.112Z" fill="white"/>
</g>
</g>
<defs>
<filter id="filter0_d_0_4332" x="3.41553" y="2.63989" width="16.2559" height="19.4722" filterUnits="userSpaceOnUse" color-interpolation-filters="sRGB">
<feFlood flood-opacity="0" result="BackgroundImageFix"/>
<feColorMatrix in="SourceAlpha" type="matrix" values="0 0 0 0 0 0 0 0 0 0 0 0 0 0 0 0 0 0 127 0" result="hardAlpha"/>
<feOffset/>
<feGaussianBlur stdDeviation="2"/>
<feColorMatrix type="matrix" values="0 0 0 0 0 0 0 0 0 0 0 0 0 0 0 0 0 0 0.286206 0"/>
<feBlend mode="normal" in2="BackgroundImageFix" result="effect1_dropShadow_0_4332"/>
<feBlend mode="normal" in="SourceGraphic" in2="effect1_dropShadow_0_4332" result="shape"/>
</filter>
<clipPath id="clip0_0_4332">
<rect width="24" height="24" fill="white"/>
</clipPath>
</defs>
</svg>
