<svg width="19" height="20" viewBox="0 0 19 20" fill="none" xmlns="http://www.w3.org/2000/svg">
<path fill-rule="evenodd" clip-rule="evenodd" d="M0.0607029 17.761C0.0607029 18.865 0.970298 20 2.01742 20H17.1931C18.2412 20 19 18.979 19 17.761C19 17.5915 18.9942 15.2145 18.9877 12.5323C18.9793 9.05988 18.9696 5.07586 18.9696 4.708C18.9696 2.626 18.7031 2 15.1757 2V0H13.2788V2H5.69089V0H3.79393V2H1.89696C0.853634 2 0 2.9 0 4L0.0607029 17.761ZM17 17C17 17.55 16.578 18 16.0623 18H2.9345C2.41689 18 1.99681 17.552 1.99681 17V9H17V17ZM1.99681 7H17V5C17 4.448 16.5799 4 16.0623 4H15.1246V6H13.2492V4H5.7476V6H3.8722V4H2.90731C2.4047 4 1.99681 4.435 1.99681 4.971V7ZM4 11H6V13H4V11ZM6 14H4V16H6V14ZM7 11H9V13H7V11ZM9 14H7V16H9V14ZM13 11H15V13H13V11ZM15 14H13V16H15V14ZM10 11H12V13H10V11ZM12 14H10V16H12V14Z" fill="#8A8A8A"/>
</svg>
