<svg width="19" height="19" viewBox="0 0 19 19" fill="none" xmlns="http://www.w3.org/2000/svg">
<path fill-rule="evenodd" clip-rule="evenodd" d="M8.05017 8.23219L15.3149 0.967461C15.6188 0.665898 16.1095 0.667276 16.4117 0.970542L17.2497 1.80854C17.5521 2.1116 17.5521 2.60228 17.2497 2.90534L16.4641 3.69096C16.3446 3.81113 16.3446 4.0052 16.4641 4.12537L17.9028 5.56414C18.0775 5.73963 18.0775 6.02331 17.9028 6.1988L15.5336 8.568C15.3571 8.74305 15.0724 8.74305 14.8959 8.568L13.4571 7.12923C13.337 7.00978 13.1429 7.00978 13.0227 7.12923L9.98497 10.167C9.88929 10.2634 9.86801 10.411 9.93259 10.5305C11.1286 12.8346 10.4657 15.6666 8.37133 17.2004C6.27694 18.7342 3.37693 18.5115 1.54131 16.6758C-0.294313 14.8402 -0.517024 11.9402 1.01679 9.84582C2.5506 7.75144 5.3826 7.08853 7.68663 8.28456C7.80611 8.34914 7.95378 8.32787 8.05017 8.23219ZM5.66416 15.0602C6.67556 14.8652 7.40787 13.9821 7.41243 12.9521C7.41494 12.3844 7.19354 11.8387 6.79625 11.4332C6.07537 10.6975 4.93483 10.5742 4.07341 11.139C3.21199 11.7037 2.87018 12.7988 3.2574 13.7533C3.64461 14.7078 4.65275 15.2552 5.66416 15.0602Z" fill="#A115E2"/>
</svg>
