<svg width="49" height="48" viewBox="0 0 49 48" fill="none" xmlns="http://www.w3.org/2000/svg">
<path fill-rule="evenodd" clip-rule="evenodd" d="M24.6846 0C37.9394 0 48.6846 10.7452 48.6846 24C48.6846 37.2548 37.9394 48 24.6846 48C11.4297 48 0.68457 37.2548 0.68457 24C0.68457 10.7452 11.4297 0 24.6846 0ZM24.6846 1.5C12.2582 1.5 2.18457 11.5736 2.18457 24C2.18457 36.4264 12.2582 46.5 24.6846 46.5C37.111 46.5 47.1846 36.4264 47.1846 24C47.1846 11.5736 37.111 1.5 24.6846 1.5ZM33.697 23.2453H12.6846V24.75H33.697L26.9372 31.5H29.1879L36.6846 23.9946L29.1879 16.5H26.9372L33.697 23.2453Z" fill="#DB3340"/>
</svg>
