<svg width="16" height="19" viewBox="0 0 16 19" fill="none" xmlns="http://www.w3.org/2000/svg">
<path fill-rule="evenodd" clip-rule="evenodd" d="M15.6506 3V2C15.6506 2.12293 15.5873 2.11085 15.3994 2.07496C15.2451 2.0455 15.0069 2 14.6506 2H10.6506V1C10.9631 0.447715 10.5434 0 9.65063 0H6.65063C5.75787 0 5.33813 0.447715 5.65063 1V2H1.65063C1.29441 2 1.05613 2.0455 0.901846 2.07496C0.713925 2.11085 0.650635 2.12293 0.650635 2V3C0.650635 3.77614 0.860501 4 1.65063 4H14.6506C15.4408 4 15.6506 3.77614 15.6506 3ZM3.65063 19C3.33866 19.0024 2.52688 18.2474 2.65063 17L1.65063 6H14.6506L13.6506 17C13.793 18.2474 12.9812 19.0024 12.6506 19H3.65063Z" fill="#931222"/>
</svg>
