<svg width="43" height="59" viewBox="0 0 43 59" fill="none" xmlns="http://www.w3.org/2000/svg">
<path fill-rule="evenodd" clip-rule="evenodd" d="M21.5 0.120117C9.0026 0.120117 0.808594 7.32581 0.808594 7.32581V28.057C0.808594 47.8431 17.7861 56.7616 21.5 58.1201C25.0959 56.7026 42.1913 47.9022 42.1913 28.057V7.32581C42.1913 7.32581 33.9383 0.120117 21.5 0.120117ZM21.5589 7.26675H22.5021C27.4539 7.26675 31.3445 8.68427 33.7025 10.0427L30.814 17.0712C28.6918 16.1262 26.4517 15.2994 22.3841 15.2994C22.0895 15.2994 21.7946 15.2994 21.5589 15.3584V7.26675ZM4.99402 28.057C4.99402 43.7677 17.1377 51.2688 21.4409 53.454C21.4409 53.2227 21.4437 52.8404 21.4475 52.3254C21.461 50.4733 21.4871 46.9047 21.4409 42.4684C11.9501 42.055 7.7057 35.2627 7.7057 24.9266C7.7057 13.8228 11.8911 7.62113 21.4409 7.20768V4.3136C13.6007 4.3136 7.5878 7.6802 4.99402 9.45209V28.057ZM15.4281 24.9857C15.4281 19.1975 17.4914 15.8309 21.5 15.3584V34.672C18.0219 34.1995 15.4281 31.1873 15.4281 24.9857ZM21.5 34.672C21.7946 34.731 22.0304 34.731 22.3252 34.731C23.9758 34.731 26.4517 34.3768 27.277 34.1995V24.5132H34.9995V40.283C34.9995 40.283 30.0477 42.5274 22.3252 42.5274H21.5L21.5 34.672Z" fill="white"/>
</svg>
