<svg width="118" height="184" viewBox="0 0 118 184" fill="none" xmlns="http://www.w3.org/2000/svg">
<path fill-rule="evenodd" clip-rule="evenodd" d="M117.5 117.955C117.5 129.001 108.546 137.955 97.5 137.955H20.5C9.4543 137.955 0.5 129.001 0.5 117.955L0.5 -0.000152588L117.5 -0.000152588L117.5 117.955Z" fill="#931222"/>
<path fill-rule="evenodd" clip-rule="evenodd" d="M58.9999 19.418C37.1761 19.418 22.8672 32.001 22.8672 32.001V68.2032C22.8672 102.755 52.5144 118.329 58.9999 120.702C65.2793 118.226 95.1325 102.858 95.1325 68.2032V32.001C95.1325 32.001 80.7205 19.418 58.9999 19.418ZM59.1027 31.8979H60.7499C69.397 31.8979 76.1911 34.3733 80.3088 36.7455L75.2648 49.0191C71.5588 47.3689 67.647 45.925 60.5439 45.925C60.0293 45.925 59.5145 45.925 59.1027 46.0281V31.8979ZM30.1761 68.2032C30.1761 95.6384 51.3821 108.737 58.8968 112.553C58.8968 112.15 58.9016 111.482 58.9082 110.584L58.9082 110.582C58.9319 107.348 58.9774 101.116 58.8968 93.3694C42.3232 92.6475 34.9114 80.7863 34.9114 62.7368C34.9114 43.3465 42.2203 32.5167 58.8968 31.7948V26.7409C45.2056 26.7409 34.7055 32.6199 30.1761 35.7141V68.2032ZM48.3967 62.8399C48.3967 52.7322 51.9998 46.8532 58.9999 46.0281V79.7548C52.9262 78.9297 48.3967 73.6696 48.3967 62.8399ZM58.9999 79.7548C59.5144 79.8579 59.9262 79.8579 60.441 79.8579H60.441C63.3233 79.8579 67.647 79.2393 69.0882 78.9297V62.0148H82.5736V89.5532C82.5736 89.5532 73.9265 93.4725 60.441 93.4725H58.9999V79.7548Z" fill="white"/>
<path fill-rule="evenodd" clip-rule="evenodd" d="M14.5099 183.529C21.1732 183.529 25.4606 181.562 25.4606 181.562V167.744H18.3323V176.18C17.6091 176.335 15.9562 176.645 14.5099 176.645C11.1524 176.645 8.51801 174.006 8.51801 168.106C8.51801 162.672 10.5842 159.619 14.5099 159.619C18.0223 159.619 19.9335 160.343 21.7931 161.171L24.2725 155.012C22.258 153.822 18.9004 152.58 14.6132 152.58C5.83205 152.58 0.924805 158.066 0.924805 168.106C0.924805 177.474 5.83205 183.529 14.5099 183.529ZM109.863 153.615V161.119C109.399 160.964 107.797 160.447 105.834 160.447C99.5321 160.447 96.1745 165.311 96.1745 171.988C96.1745 178.457 99.8944 183.373 107.384 183.373C111.929 183.373 116.681 182.08 116.681 182.08V152.58L109.863 153.615ZM107.384 177.37C104.129 177.37 102.993 174.575 102.993 171.677C102.993 166.45 105.782 166.347 106.713 166.347C108.158 166.347 109.553 166.812 109.863 166.967V177.215C109.657 177.266 107.9 177.37 107.384 177.37ZM90.8031 166.347C92.1977 166.347 93.4373 166.553 94.2116 166.709L96.4338 161.275C95.2972 160.861 93.2822 160.395 90.9581 160.395C85.9478 160.395 82.0219 162.051 82.0219 162.051V182.649H88.788V166.553C88.9952 166.502 89.7186 166.347 90.8031 166.347ZM75.6169 162.827C74.8935 161.999 72.6207 160.24 67.8168 160.24C65.5958 160.24 63.1163 160.602 61.7218 160.964V166.864C62.7031 166.553 64.8209 166.088 67.1454 166.088C68.4884 166.088 69.8314 166.502 70.3479 167.019C70.8645 167.537 71.1227 168.158 71.1227 169.038C70.8645 168.986 69.4182 168.779 67.662 168.779C62.2383 168.779 58.2609 171.211 58.2609 175.921C58.2609 181.148 61.98 183.218 67.8168 183.218C72.7757 183.218 77.6307 182.08 77.6307 182.08V169.296C77.6828 166.916 77.2176 164.639 75.6169 162.827ZM68.2301 177.732C69.8314 177.732 71.1227 177.577 71.1227 177.577H71.1744V173.747C71.1744 173.747 70.038 173.592 68.7983 173.592C66.3189 173.592 65.0275 174.368 65.0275 175.714C65.0275 177.525 66.7321 177.732 68.2301 177.732ZM50.4611 160.861H57.796C57.796 160.861 56.2463 167.071 54.7484 172.764C53.1988 178.612 51.9591 182.649 51.9591 182.649H46.0189C46.0189 182.649 44.4175 178.198 43.7461 176.128C43.6129 175.713 43.4755 175.293 43.3375 174.872L43.3374 174.872C42.9936 173.823 42.6463 172.763 42.3515 171.729C42.145 172.453 41.9128 173.19 41.6805 173.926C41.4479 174.665 41.2152 175.403 41.0084 176.128C40.3885 178.146 38.7873 182.649 38.7873 182.649H33.002C33.002 182.649 31.7107 178.353 30.1095 172.764C28.4049 166.916 27.0618 160.861 27.0618 160.861H34.5C34.5 160.861 36.6178 171.522 36.7728 172.143C36.9794 171.47 39.8204 160.861 39.8204 160.861H45.0374C45.0374 160.861 47.9817 171.47 48.1883 172.143C48.2917 171.522 50.4611 160.861 50.4611 160.861Z" fill="#931222"/>
</svg>
