<svg width="291" height="1088" viewBox="0 0 291 1088" fill="none" xmlns="http://www.w3.org/2000/svg">
<g style="mix-blend-mode:overlay" opacity="0.3">
<path fill-rule="evenodd" clip-rule="evenodd" d="M291 857.408V960.205C291 1041.8 234.123 1088 146.523 1088C52.1295 1088 0.813488 1041.71 0.813488 959.096C0.813488 918.949 12.5784 887.078 23.6974 868.108L81.5612 891.648C73.6263 908.939 67.0946 927.03 67.0946 960.205C67.0946 997.224 95.7017 1016.53 146.523 1016.53C201.929 1016.53 226.682 991.932 226.682 960.205C226.682 946.757 223.86 931.009 222.126 924.483H143.051V857.408H291ZM78.5147 622.507V553.34C78.5147 553.34 136.562 567.75 190.074 582.069C245.054 596.782 284.63 608.499 284.63 608.499V664.311C284.63 664.311 241.1 679.545 221.842 685.793C208.087 690.253 194.237 695.134 180.499 699.014C194.29 702.836 208.112 707.537 221.764 711.694C240.627 717.437 284.63 732.63 284.63 732.63V787.055C284.63 787.055 242.797 799.247 190.071 814.486C135.215 830.342 78.5147 843.219 78.5147 843.219V773.311C78.5147 773.311 178.444 753.413 184.306 751.865C178.056 749.992 78.5147 723.041 78.5147 723.041L78.5322 674.019C78.5322 674.019 178.115 646.108 184.313 644.279C178.439 642.699 78.5147 622.507 78.5147 622.507V622.507ZM235.339 427.873C235.339 427.873 237.002 440.176 237.002 455.192C237.002 469.096 234.867 485.55 218.233 485.55C205.569 485.55 198.407 473.369 198.407 450.022C198.407 438.183 199.928 427.873 199.928 427.873H235.339ZM96.9513 385.589C89.3362 392.372 72.5891 413.939 72.5891 458.914C72.5891 479.996 76.1817 502.907 79.1832 516.003H134.404C131.629 506.943 127.351 486.669 127.351 465.193C127.351 452.403 131.236 439.928 136.077 435.116C140.956 430.284 146.608 427.911 154.82 427.873C154.327 430.465 152.576 443.899 152.576 460.363C152.576 511.37 175.635 548.767 219.722 548.767C268.593 548.767 288.416 513.891 288.416 458.885C288.416 412.231 289.256 366.504 289.256 366.504H157.627C134.972 366.504 113.642 370.723 96.9513 385.589V385.589ZM132.957 210.98C131.258 218.206 129.586 229.996 129.586 242.907C129.586 253.218 131.233 259.965 131.631 261.901H291V325.486H89.4712C89.4712 325.486 73.7038 288.709 73.7038 241.429C73.7038 219.456 78.2123 200.594 81.8686 190.027L132.957 210.98ZM233.281 86.8945C233.281 117.657 207.046 128.052 179.93 128.052C130.644 128.052 129.928 101.801 129.928 93.1739C129.928 79.5626 134.41 66.3726 135.904 63.5848H232.036C232.289 65.4675 233.281 82.1116 233.281 86.8945V86.8945ZM10.3229 63.5848H80.8752C79.2057 67.9502 74.4198 83.1792 74.4198 101.668C74.4198 160.937 119.861 192.743 182.535 192.743C243.058 192.743 289.161 157.758 289.161 87.2646C289.161 44.4742 288.636 0 288.636 0H0L10.3229 63.5848Z" fill="white"/>
</g>
</svg>
