<svg width="72" height="116" viewBox="0 0 72 116" fill="none" xmlns="http://www.w3.org/2000/svg">
<path d="M13.3155 35.0271V89.587C13.3155 97.1997 19.5647 103.37 27.2751 103.37C34.9855 103.37 41.2346 97.1997 41.2346 89.587V35.0271C41.2346 32.1737 38.8898 29.8587 35.9998 29.8587C33.1097 29.8587 30.765 32.1737 30.765 35.0271V86.7119C30.765 90.2006 27.9021 93.0325 24.3687 93.0325C20.8353 93.0325 17.967 90.2006 17.967 86.7119V35.0271C17.967 25.1963 26.0429 17.2283 35.9999 17.2283C45.957 17.2283 54.0329 25.1963 54.0329 35.0271V89.587C54.0329 104.177 42.0528 116 27.2752 116C12.4977 116 0.517578 104.177 0.517578 89.587V35.0271C0.517578 15.6832 16.4021 0 35.9999 0C55.5921 0 71.4823 15.6832 71.4823 35.0271H58.6843C58.6843 22.6604 48.5255 12.6304 36.0001 12.6304C23.4689 12.6304 13.3155 22.6604 13.3155 35.0271Z" fill="#ECECEC"/>
</svg>
