<svg width="24" height="24" viewBox="0 0 24 24" fill="none" xmlns="http://www.w3.org/2000/svg">
<path fill-rule="evenodd" clip-rule="evenodd" d="M5.14286 3.42857V2.57143C5.14286 1.15071 6.29357 0 7.71429 0H16.2857C17.7064 0 18.8571 1.15071 18.8571 2.57143V3.42857H5.14286ZM3.42857 15.2818V18.8571H2.57143C1.15071 18.8571 0 17.7064 0 16.2857V7.71429C0 6.29357 1.15071 5.14286 2.57143 5.14286H21.4286C22.8493 5.14286 24 6.29357 24 7.71429V16.2857C24 17.7064 22.8493 18.8571 21.4286 18.8571H20.5714V15.2818C21.57 14.9293 22.2857 13.9758 22.2857 12.8572C22.2857 11.4375 21.1339 10.2858 19.7143 10.2858H4.28571C2.86607 10.2858 1.71429 11.4375 1.71429 12.8572C1.71429 13.9758 2.43001 14.9293 3.42857 15.2818ZM4.28571 13.7143H5.14286V21.4286C5.14286 22.8493 6.29357 24 7.71429 24H16.2857C17.7064 24 18.8571 22.8493 18.8571 21.4286V13.7143H19.7143C20.1879 13.7143 20.5714 13.3307 20.5714 12.8571C20.5714 12.3836 20.1879 12 19.7143 12H4.28571C3.81213 12 3.42857 12.3836 3.42857 12.8571C3.42857 13.3307 3.81213 13.7143 4.28571 13.7143Z" fill="white"/>
</svg>
