<svg width="21" height="20" viewBox="0 0 21 20" fill="none" xmlns="http://www.w3.org/2000/svg">
<path fill-rule="evenodd" clip-rule="evenodd" d="M18.7967 0.225379L20.4264 2.05392C20.7251 2.35443 20.7251 2.84617 20.4264 3.14667L18.8245 4.75847L16.1087 1.83718L17.7106 0.225379C18.0093 -0.0751264 18.498 -0.0751264 18.7967 0.225379ZM2.57067 18.1133H16.7301V9.39444L18.6504 7.36224V18.3858C18.6504 19.2872 17.9118 20 17.0044 20H2.29635C1.38896 20 0.650391 19.2872 0.650391 18.3858V4.34044C0.650391 3.45999 1.38896 2.72627 2.29635 2.72627H12.7629L10.8427 4.63393H2.57067V18.1133ZM15.2345 2.72627L9.79044 8.45087L12.5883 11.3856L18.0324 5.66096L15.2345 2.72627ZM7.62342 10.6667C7.51483 10.767 7.46054 10.8673 7.40625 11.0178L6.67327 14.0526C6.53754 14.5543 7.02619 15.0057 7.59628 14.9054L10.3745 13.7251C10.5102 13.7 10.6459 13.6248 10.7545 13.5245L11.6504 12.6968L8.51928 9.83898L7.62342 10.6667Z" fill="white"/>
</svg>
