<svg width="20" height="18" viewBox="0 0 20 18" fill="none" xmlns="http://www.w3.org/2000/svg">
<path fill-rule="evenodd" clip-rule="evenodd" d="M19.5102 14.3481L12.0879 1.49168C10.9398 -0.497228 9.06093 -0.497228 7.91292 1.49168L0.489942 14.3481C-0.658072 16.337 0.281272 17.9641 2.57774 17.9641H17.4224C19.7188 17.9641 20.6586 16.337 19.5102 14.3481ZM8.88893 5.53773C8.88893 4.92395 9.38627 4.42661 10.0001 4.42661C10.6138 4.42661 11.1112 4.92395 11.1112 5.53773V10.512C11.1112 11.126 10.6138 11.6231 10.0001 11.6231C9.38627 11.6231 8.88893 11.126 8.88893 10.512V5.53773ZM8.65581 14.3047C8.65581 15.0458 9.25915 15.649 10.0001 15.649C10.7414 15.649 11.3443 15.0458 11.3443 14.3047C11.3443 13.5636 10.7414 12.9605 10.0001 12.9605C9.25915 12.9605 8.65581 13.5636 8.65581 14.3047Z" fill="#FF4268"/>
</svg>
