<svg width="22" height="20" viewBox="0 0 22 20" fill="none" xmlns="http://www.w3.org/2000/svg">
<path fill-rule="evenodd" clip-rule="evenodd" d="M11.2043 3.47579L10.1799 1.42814C9.74592 0.558892 8.84513 0 7.88377 0H2.85504C1.27172 0 0 1.27296 0 2.85504V17.008C0 18.5913 1.27296 19.863 2.85504 19.863H18.7451C20.3284 19.863 21.6001 18.5901 21.6001 17.008L21.6013 6.30064C21.6013 4.74885 20.3283 3.47588 18.7463 3.47588L11.2043 3.47579ZM7.88259 1.86218C8.16143 1.86218 8.40995 2.01736 8.53484 2.26589L9.8078 4.81058C9.96298 5.12093 10.2733 5.33794 10.6455 5.33794H18.7766C19.3355 5.33794 19.7695 5.77194 19.7695 6.33083V7.38555L1.86215 7.38677V2.85492C1.86215 2.29603 2.29736 1.86202 2.85504 1.86202L7.88259 1.86218ZM2.85511 18.0008C2.29621 18.0008 1.86221 17.5668 1.86221 17.0079V9.21728H19.7394V17.0079C19.7394 17.5668 19.3042 18.0008 18.7465 18.0008H2.85511Z" fill="#DE7474"/>
</svg>
