<svg width="21" height="16" viewBox="0 0 21 16" fill="none" xmlns="http://www.w3.org/2000/svg">
<path fill-rule="evenodd" clip-rule="evenodd" d="M20.0388 2L18.0388 0L16.0388 2L14.0388 0L12.0388 2L10.0388 0L8.03882 2L6.03882 0L4.03882 2L2.03882 0L0.0388184 2L2.03882 4L0.0388184 6L2.03882 8L0.0388184 10L2.03882 12L0.0388184 14L2.03882 16L4.03882 14L6.03882 16L8.03882 14L10.0388 16L12.0388 14L14.0388 16L16.0388 14L18.0388 16L20.0388 14L18.0388 12L20.0388 10L18.0388 8L20.0388 6L18.0388 4L20.0388 2ZM10.0388 11L4.03882 6V4L10.0388 8L16.0388 4V6L10.0388 11Z" fill="white"/>
</svg>
