<svg width="21" height="20" viewBox="0 0 21 20" fill="none" xmlns="http://www.w3.org/2000/svg">
<path fill-rule="evenodd" clip-rule="evenodd" d="M18.7969 0.225379L20.4266 2.05392C20.7253 2.35443 20.7253 2.84617 20.4266 3.14667L18.8247 4.75847L16.109 1.83718L17.7109 0.225379C18.0095 -0.0751264 18.4982 -0.0751264 18.7969 0.225379ZM2.57092 18.1133H16.7304V9.39444L18.6506 7.36224V18.3858C18.6506 19.2872 17.9121 20 17.0047 20H2.29659C1.3892 20 0.650635 19.2872 0.650635 18.3858V4.34044C0.650635 3.45999 1.3892 2.72627 2.29659 2.72627H12.7632L10.8429 4.63393H2.57092V18.1133ZM15.2348 2.72627L9.79068 8.45087L12.5886 11.3856L18.0327 5.66096L15.2348 2.72627ZM7.62367 10.6667C7.51508 10.767 7.46078 10.8673 7.40649 11.0178L6.67352 14.0526C6.53778 14.5543 7.02643 15.0057 7.59652 14.9054L10.3747 13.7251C10.5105 13.7 10.6462 13.6248 10.7548 13.5245L11.6506 12.6968L8.51952 9.83898L7.62367 10.6667Z" fill="#931222"/>
</svg>
