<svg aria-hidden="true" xmlns="http://www.w3.org/2000/svg" xmlns:xlink="http://www.w3.org/1999/xlink"><symbol viewBox="0 0 53 43" id="basket_empty" xmlns="http://www.w3.org/2000/svg">
<path fill-rule="evenodd" clip-rule="evenodd" d="M10.6571 0C14.8992 0 18.3387 3.4278 18.3387 7.65455C18.3387 11.8823 14.8992 15.3091 10.6571 15.3091C6.41591 15.3091 2.97642 11.8823 2.97642 7.65455C2.97742 3.4278 6.41591 0 10.6571 0ZM42.3429 0C46.5851 0 50.0215 3.4278 50.0215 7.65455C50.0215 11.8823 46.5841 15.3091 42.3429 15.3091C38.0997 15.3091 34.6622 11.8823 34.6622 7.65455C34.6622 3.4278 38.1007 0 42.3429 0ZM26.5 23.3876C15.7932 23.3876 5.96841 29.2213 0.861357 38.6087C0.0757331 40.0537 0.613529 41.8586 2.06337 42.6405C3.51422 43.4225 5.32426 42.8865 6.10788 41.4426C10.1725 33.975 17.9855 29.3343 26.5 29.3343C35.0144 29.3343 42.8275 33.975 46.8931 41.4436C47.6767 42.8875 49.4908 43.4225 50.9376 42.6395C52.3864 41.8566 52.9242 40.0507 52.1386 38.6087C47.0306 29.2203 37.2067 23.3876 26.5 23.3876Z"/>
</symbol><symbol viewBox="0 0 15 19" id="del-compare" xmlns="http://www.w3.org/2000/svg">
<path fill-rule="evenodd" clip-rule="evenodd" d="M15 3V2C15 2.12293 14.9367 2.11085 14.7488 2.07496C14.5945 2.0455 14.3562 2 14 2H10V1C10.3125 0.447715 9.89277 0 9 0H6C5.10723 0 4.6875 0.447715 5 1V2H1C0.643773 2 0.405491 2.0455 0.251211 2.07496C0.0632898 2.11085 0 2.12293 0 2V3C0 3.77614 0.209867 4 1 4H14C14.7901 4 15 3.77614 15 3ZM3 19C2.68802 19.0024 1.87624 18.2474 2 17L1 6H14L13 17C13.1423 18.2474 12.3305 19.0024 12 19H3Z"/>
</symbol><symbol viewBox="0 0 18 18" id="dynamic-fields_icon" xmlns="http://www.w3.org/2000/svg">
<path fill-rule="evenodd" clip-rule="evenodd" d="M10.1739 0H7.82609V7.82609H0V10.1739H7.82609V18H10.1739V10.1739H18V7.82609H10.1739V0Z"/>
</symbol><symbol viewBox="0 0 16 20" id="file-upload-icon" xmlns="http://www.w3.org/2000/svg">
<path fill-rule="evenodd" clip-rule="evenodd" d="M15.9051 8.946L11.1904 18.845C10.7181 19.846 9.51436 20.279 8.50183 19.812L1.16831 16.431C0.155774 15.964 -0.282214 14.774 0.190166 13.773L6.18747 1.155C6.65884 0.154 7.86255 -0.279 8.87609 0.188L13.4593 2.301C14.4718 2.768 14.9098 3.958 14.4374 4.959L10.1506 13.952C9.67823 14.953 8.47452 15.386 7.46199 14.919L5.62911 14.074C4.61557 13.607 4.17758 12.417 4.64996 11.416L7.65417 5.142C7.89087 4.641 8.49273 4.425 8.99849 4.658C9.50526 4.892 9.72375 5.487 9.48806 5.987L6.91172 11.355C6.67502 11.855 6.89452 12.45 7.40028 12.684C7.90705 12.917 8.50891 12.701 8.74459 12.2L12.1767 5.021C12.4124 4.52 12.1939 3.924 11.6871 3.691L8.93678 2.423C8.43102 2.19 7.82917 2.406 7.59348 2.907L2.45294 13.708C2.21523 14.211 2.43574 14.808 2.94454 15.043L8.43608 17.575C8.94487 17.809 9.54976 17.592 9.78646 17.089L14.0713 8.101C14.308 7.6 14.9098 7.384 15.4156 7.617C15.9223 7.85 16.1408 8.446 15.9051 8.946Z"/>
</symbol><symbol viewBox="0 0 20 20" id="filters-btn" xmlns="http://www.w3.org/2000/svg">
<path fill-rule="evenodd" clip-rule="evenodd" d="M2 0H4V3.17071C5.16519 3.58254 6 4.69378 6 6C6 7.30622 5.16519 8.41746 4 8.82929V20H2V8.82929C0.834808 8.41746 0 7.30622 0 6C0 4.69378 0.834808 3.58254 2 3.17071V0ZM7 14C7 15.3062 7.83481 16.4175 9 16.8293V20H11V16.8293C12.1652 16.4175 13 15.3062 13 14C13 12.6938 12.1652 11.5825 11 11.1707V0H9V11.1707C7.83481 11.5825 7 12.6938 7 14ZM18 0H16V5.17071C14.8348 5.58254 14 6.69378 14 8C14 9.30622 14.8348 10.4175 16 10.8293V20H18V10.8293C19.1652 10.4175 20 9.30622 20 8C20 6.69378 19.1652 5.58254 18 5.17071V0ZM18 8C18 8.55228 17.5523 9 17 9C16.4477 9 16 8.55228 16 8C16 7.44772 16.4477 7 17 7C17.5523 7 18 7.44772 18 8ZM10 15C10.5523 15 11 14.5523 11 14C11 13.4477 10.5523 13 10 13C9.44772 13 9 13.4477 9 14C9 14.5523 9.44772 15 10 15ZM4 6C4 6.55228 3.55228 7 3 7C2.44772 7 2 6.55228 2 6C2 5.44772 2.44772 5 3 5C3.55228 5 4 5.44772 4 6Z"/>
</symbol><symbol viewBox="0 0 136 37" id="header_logo" xmlns="http://www.w3.org/2000/svg">
<path fill-rule="evenodd" clip-rule="evenodd" d="M16.4357 36.8369C24.1866 36.8369 29.1738 34.5493 29.1738 34.5493V18.4757H20.882V28.2884C20.0408 28.469 18.1182 28.8302 16.4357 28.8302C12.5302 28.8302 9.46587 25.7599 9.46587 18.8971C9.46587 12.5761 11.8693 9.02427 16.4357 9.02427C20.5215 9.02427 22.7446 9.86705 24.9077 10.8302L27.7918 3.66635C25.4485 2.28173 21.5429 0.836914 16.5559 0.836914C6.3415 0.836914 0.633301 7.2182 0.633301 18.8971C0.633301 29.7934 6.3415 36.8369 16.4357 36.8369ZM127.352 2.04093V10.77C126.813 10.5895 124.949 9.98741 122.666 9.98741C115.335 9.98741 111.43 15.6463 111.43 23.4121C111.43 30.9373 115.757 36.6562 124.469 36.6562C129.756 36.6562 135.283 35.1513 135.283 35.1513V0.836914L127.352 2.04093ZM124.469 29.6731C120.683 29.6731 119.361 26.4222 119.361 23.051C119.361 16.9707 122.605 16.8503 123.688 16.8503C125.369 16.8503 126.992 17.3921 127.352 17.5726V29.4924C127.113 29.5526 125.069 29.6731 124.469 29.6731ZM105.181 16.8503C106.804 16.8503 108.246 17.0911 109.146 17.2717L111.731 10.9506C110.409 10.469 108.065 9.92723 105.362 9.92723C99.5337 9.92723 94.967 11.8537 94.967 11.8537V35.8135H102.838V17.0911C103.079 17.0309 103.92 16.8503 105.181 16.8503ZM87.5166 12.7566C86.6751 11.7935 84.0314 9.74656 78.4434 9.74656C75.8599 9.74656 72.9757 10.168 71.3535 10.5895V17.4523C72.495 17.0911 74.9585 16.5493 77.6624 16.5493C79.2245 16.5493 80.7868 17.0309 81.3876 17.6329C81.9885 18.2349 82.2889 18.9573 82.2889 19.9808C81.9885 19.9205 80.3062 19.6797 78.2633 19.6797C71.9544 19.6797 67.3278 22.5091 67.3278 27.9874C67.3278 34.0677 71.6539 36.4757 78.4434 36.4757C84.2117 36.4757 89.8591 35.1513 89.8591 35.1513V20.2817C89.9197 17.5125 89.3785 14.8637 87.5166 12.7566ZM78.9242 30.0945C80.7868 30.0945 82.2889 29.9138 82.2889 29.9138H82.3491V25.459C82.3491 25.459 81.0271 25.2783 79.5851 25.2783C76.701 25.2783 75.1988 26.1814 75.1988 27.7467C75.1988 29.8536 77.1817 30.0945 78.9242 30.0945ZM58.2549 10.469H66.787C66.787 10.469 64.9844 17.6931 63.242 24.3152C61.4394 31.1178 59.9974 35.8135 59.9974 35.8135H53.0876C53.0876 35.8135 51.2249 30.6362 50.4439 28.2282C50.2889 27.7452 50.129 27.2571 49.9684 26.767L49.9683 26.7668C49.5685 25.5467 49.1645 24.3136 48.8216 23.1112C48.5814 23.9532 48.3113 24.8102 48.0412 25.6673L48.0411 25.6674C47.7705 26.526 47.4999 27.3846 47.2594 28.2282C46.5383 30.5761 44.6757 35.8135 44.6757 35.8135H37.9462C37.9462 35.8135 36.4441 30.8168 34.5815 24.3152C32.5986 17.5125 31.0364 10.469 31.0364 10.469H39.6887C39.6887 10.469 42.1521 22.8703 42.3324 23.5928C42.5727 22.8102 45.8774 10.469 45.8774 10.469H51.946C51.946 10.469 55.3708 22.8102 55.6112 23.5928C55.7314 22.8703 58.2549 10.469 58.2549 10.469Z"/>
</symbol><symbol viewBox="0 0 30 24" id="icon_basket" xmlns="http://www.w3.org/2000/svg">
<path id="ag&#xD0;&#xBA;&#xD0;&#xBE;&#xD1;&#x80;&#xD0;&#xB7;&#xD0;&#xB8;&#xD0;&#xBD;&#xD0;&#xB0; copy" fill-rule="evenodd" clip-rule="evenodd" d="M0 2.52632H6.02929L10.3958 16H26.464L30 4.52522H9.30518L7.83865 0H0V2.52632ZM24.6267 13.4737H12.2052L10.1239 7.05154H26.6057L24.6267 13.4737ZM17.4812 21.0526C17.4812 22.6804 16.1767 24 14.5676 24C12.9585 24 11.6541 22.6804 11.6541 21.0526C11.6541 19.4248 12.9585 18.1053 14.5676 18.1053C16.1767 18.1053 17.4812 19.4248 17.4812 21.0526ZM23.7244 24C25.3335 24 26.638 22.6804 26.638 21.0526C26.638 19.4248 25.3335 18.1053 23.7244 18.1053C22.1153 18.1053 20.8109 19.4248 20.8109 21.0526C20.8109 22.6804 22.1153 24 23.7244 24Z"/>
</symbol><symbol viewBox="0 0 25 24" id="icon_cabinet" xmlns="http://www.w3.org/2000/svg">
<path fill-rule="evenodd" clip-rule="evenodd" d="M24.6172 21.0964C24.6172 19.1673 23.3041 17.4859 21.433 17.0185L16.8353 15.8695L16.8415 15.2833C16.8467 14.7569 17.0655 14.2325 17.464 13.7958C18.7763 12.3574 19.4163 10.9712 19.6241 9.35909C19.7022 8.75304 19.7169 8.29281 19.7169 7.25245C19.7169 3.27444 16.5865 0.0724969 12.6408 0C8.64805 0.0724936 5.51751 3.27426 5.51751 7.25147C5.51751 8.29184 5.53218 8.75207 5.6103 9.35811C5.8181 10.9702 6.45806 12.3564 7.77031 13.7947C8.1689 14.2315 8.38763 14.7559 8.3929 15.2817L8.39908 15.8685L3.80125 17.0175C1.9298 17.4864 0.617188 19.1677 0.617188 21.0964V22.7143C0.617188 23.4244 1.19282 24 1.9029 24H23.3315C24.0416 24 24.6172 23.4244 24.6172 22.7143V21.0964ZM20.8867 19.5839C21.6199 19.7671 22.1344 20.426 22.1344 21.182V21.5172H3.09995V21.182C3.09995 20.4259 3.61472 19.7666 4.34842 19.5828L9.23014 18.3628C10.2541 18.1074 10.9689 17.1815 10.9575 16.1262L10.9486 15.286C10.9367 14.0978 10.4628 12.9616 9.64212 12.0623C8.67781 11.0054 8.26047 10.1014 8.11872 9.00171C8.05882 8.53702 8.04636 8.14605 8.04636 7.20713C8.04636 4.60514 10.0755 2.5299 12.641 2.48276C15.159 2.5299 17.188 4.60526 17.188 7.20812C17.188 8.14704 17.1756 8.538 17.1157 9.00269C16.9739 10.1024 16.5566 11.0064 15.5922 12.0633C14.7716 12.9626 14.2976 14.0988 14.2857 15.2876L14.2769 16.1276C14.2655 17.1833 14.9801 18.1084 16.0048 18.364L20.8867 19.5839Z"/>
</symbol><symbol viewBox="0 0 20 20" id="icon_change" xmlns="http://www.w3.org/2000/svg">
<path fill-rule="evenodd" clip-rule="evenodd" d="M18.1463 0.225379L19.776 2.05392C20.0747 2.35443 20.0747 2.84617 19.776 3.14667L18.1741 4.75847L15.4583 1.83718L17.0602 0.225379C17.3589 -0.0751264 17.8476 -0.0751264 18.1463 0.225379ZM1.92028 18.1133H16.0797V9.39444L18 7.36224V18.3858C18 19.2872 17.2614 20 16.354 20H1.64596C0.73857 20 0 19.2872 0 18.3858V4.34044C0 3.45999 0.73857 2.72627 1.64596 2.72627H12.1125L10.1923 4.63393H1.92028V18.1133ZM14.5841 2.72627L9.14005 8.45087L11.9379 11.3856L17.382 5.66096L14.5841 2.72627ZM6.97303 10.6667C6.86444 10.767 6.81015 10.8673 6.75585 11.0178L6.02288 14.0526C5.88715 14.5543 6.3758 15.0057 6.94588 14.9054L9.72409 13.7251C9.85982 13.7 9.99556 13.6248 10.1041 13.5245L11 12.6968L7.86889 9.83898L6.97303 10.6667Z"/>
</symbol><symbol viewBox="0 0 27 27" id="icon_close-modal" xmlns="http://www.w3.org/2000/svg">
	<path fill-rule="evenodd" clip-rule="evenodd" d="M15.9099 13.0815L26.163 23.3345L23.3345 26.163L13.0815 15.9099L2.82843 26.163L0 23.3345L10.253 13.0815L0 2.82843L2.82843 0L13.0815 10.253L23.3345 0L26.163 2.82843L15.9099 13.0815Z"/>
</symbol><symbol viewBox="0 0 12 19" id="icon_enter" xmlns="http://www.w3.org/2000/svg">
<path d="M5 16C6.06922 16.5062 6.25623 17.8468 6 18C5.56139 18.0418 5.18811 17.9474 5 18L0 13L5 8L5.3263 7.99585C5.59279 7.99447 5.91058 7.99585 6 8C6.66518 8.78971 6.13613 9.43494 5 10L3 12H10V1C9.99608 0.579773 10.4447 0.133077 11 0C11.5514 0.133077 12 0.579773 12 1V13C12 14.0423 10.9664 14.0423 11 14H3L5 16Z"/>
</symbol><symbol viewBox="0 0 26 24" id="icon_favorites" xmlns="http://www.w3.org/2000/svg">
<path fill-rule="evenodd" clip-rule="evenodd" d="M4.99257 24L13 19.9053L21.0074 24L19.477 15.321L26 9.13647L16.9896 7.86297L13 0L9.01036 7.86297L0 9.13647L6.52295 15.321L4.99257 24ZM17.8138 19.6738L13 17.2122L8.18618 19.6738L9.10443 14.4663L5.25477 10.8164L10.579 10.0638L13 5.29244L15.421 10.0638L20.7452 10.8164L16.8956 14.4663L17.8138 19.6738Z"/>
</symbol><symbol viewBox="0 0 23 15" id="icon_pagging-left" xmlns="http://www.w3.org/2000/svg">
<path fill-rule="evenodd" clip-rule="evenodd" d="M22.4375 6.79564L2.82588 6.79564L9.13504 0.5L7.03435 0.5L0.0375004 7.49498L7.03435 14.5H9.13504L2.82588 8.2L22.4375 8.2V6.79564Z"/>
</symbol><symbol viewBox="0 0 23 15" id="icon_pagging-right" xmlns="http://www.w3.org/2000/svg">
<path fill-rule="evenodd" clip-rule="evenodd" d="M0.291504 6.79564L19.9031 6.79564L13.594 0.5L15.6947 0.5L22.6915 7.49498L15.6947 14.5H13.594L19.9031 8.2L0.291504 8.2L0.291504 6.79564Z"/>
</symbol><symbol viewBox="0 0 22 31" id="icon_phone" xmlns="http://www.w3.org/2000/svg">
<path fill-rule="evenodd" clip-rule="evenodd" d="M19.4724 19.5082C18.3371 17.4343 15.7372 16.7286 13.7093 17.9569L12.9395 18.4199C12.9395 18.4199 11.9289 16.7388 11.1308 14.8769C10.3327 13.015 9.73822 10.9522 9.73822 10.9522L10.6102 10.4214C12.5908 9.22186 13.2712 6.63158 12.1621 4.58432L10.8183 2.16007C9.68608 0.091985 7.09432 -0.618325 5.06535 0.588609L2.12301 2.37647C-1.19407 4.39754 -0.619537 11.0991 3.81459 19.1674C8.297 27.2964 12.9128 31.6223 16.3313 29.5518C16.3586 29.5333 16.384 29.5161 16.408 29.4997C16.4877 29.4455 16.5534 29.4008 16.6313 29.3502C16.7121 29.3107 16.7395 29.2975 16.7768 29.2803L16.926 29.201L19.262 27.785C21.2466 26.5615 21.9239 23.9768 20.8093 21.9197L19.4724 19.5082ZM15.2606 20.5251C15.8276 20.1817 16.5233 20.3705 16.8434 20.9553L18.18 23.3663C18.5284 24.0161 18.3092 24.8477 17.6962 25.2256L15.4377 26.5945C15.4028 26.6112 15.3645 26.6298 15.3133 26.6548C15.2325 26.6943 15.2052 26.7074 15.1678 26.7247L14.9751 26.8136L14.8147 26.9524C14.8005 26.9646 14.7778 26.9813 14.6994 27.0356C13.6641 27.6594 10.0766 24.3088 6.44405 17.7211C4.74417 14.628 4.28502 12.3169 3.79806 9.86577C3.74196 9.58338 3.68549 9.29913 3.62671 9.01162C3.14243 6.64285 3.32381 5.15831 3.68355 4.93913L6.61226 3.15947C7.16711 2.82949 7.86874 3.02178 8.18927 3.60726L9.52993 6.02571C9.87467 6.66219 9.65698 7.49095 9.05212 7.85729L7.09133 9.05072L6.02106 9.70214L6.47138 10.871C6.47138 10.871 7.32452 13.7912 8.50218 16.3248C9.67984 18.8583 11.3252 21.3131 11.3252 21.3131L12.1372 22.4038L15.2606 20.5251Z"/>
</symbol><symbol viewBox="0 0 17 18" id="icon_reset" xmlns="http://www.w3.org/2000/svg">
<g clip-path="url(#apclip0_109_1659)">
<path fill-rule="evenodd" clip-rule="evenodd" d="M11.0006 1C14.4508 1.88831 17 5.02035 17 8.7478C17 11.7271 15.3713 14.3261 12.9558 15.7029L15 17.7478H9V11.7478L10.7034 13.4501C12.6262 12.7535 14 10.9111 14 8.7478C14 6.69799 12.7665 4.93628 11.0013 4.16442L11.0006 1ZM5.99935 16.7478C2.54923 15.8595 0 12.7274 0 9C0 6.02065 1.62865 3.4217 4.04422 2.04486L2 0H8V6L6.29661 4.29765C4.37383 4.9943 3 6.83671 3 9C3 11.0498 4.23348 12.8115 5.99868 13.5834L5.99935 16.7478Z"/>
</g>
<defs>
<clipPath id="apclip0_109_1659">
<rect width="17" height="17.7478"/>
</clipPath>
</defs>
</symbol><symbol viewBox="0 0 24 23" id="icon_search" xmlns="http://www.w3.org/2000/svg">
	<path fill-rule="evenodd" clip-rule="evenodd" d="M16.1334 17.1275C14.4231 18.6086 12.1924 19.5047 9.75235 19.5047C4.36628 19.5047 0 15.1384 0 9.75235C0 4.36628 4.36628 0 9.75235 0C15.1384 0 19.5047 4.36628 19.5047 9.75235C19.5047 11.7377 18.9114 13.5846 17.8925 15.1252L23.4497 20.6825L21.569 22.5632L16.1334 17.1275ZM16.845 9.75235C16.845 13.6695 13.6695 16.845 9.75235 16.845C5.83521 16.845 2.65973 13.6695 2.65973 9.75235C2.65973 5.83521 5.83521 2.65973 9.75235 2.65973C13.6695 2.65973 16.845 5.83521 16.845 9.75235Z"/>
</symbol><symbol viewBox="0 0 26 26" id="icon_share" xmlns="http://www.w3.org/2000/svg">
<path fill-rule="evenodd" clip-rule="evenodd" d="M16.6397 17.6801C17.6799 16.3801 19.1099 15.6 20.7998 15.6H20.8001C23.6602 15.6 26.0001 17.9399 26.0001 20.8C26.0001 23.6601 23.6602 26 20.8001 26C17.94 26 15.6001 23.6601 15.6001 20.8C15.6001 20.67 15.6326 20.54 15.6651 20.41C15.6976 20.28 15.7301 20.15 15.7301 20.02L9.3601 17.42C8.31996 18.72 6.88991 19.5 5.2 19.5C2.33991 19.5 0 17.1601 0 14.3C0 11.4399 2.33991 9.1 5.2 9.1C6.63 9.1 7.93 9.75 8.83991 10.6601L15.8599 6.63005C15.8376 6.54102 15.8154 6.45581 15.7938 6.37309L15.7937 6.3729L15.7937 6.37281C15.6891 5.97254 15.5998 5.63083 15.5998 5.2C15.5998 2.33991 17.9397 0 20.7998 0C23.6599 0 25.9998 2.33991 25.9998 5.2C25.9998 8.0601 23.6599 10.4 20.7998 10.4C19.3698 10.4 18.0698 9.75 17.0297 8.83991L10.1397 12.87C10.162 12.9591 10.1843 13.0444 10.2059 13.1272L10.2059 13.1272C10.3105 13.5275 10.3998 13.8692 10.3998 14.3C10.3998 14.5601 10.3998 14.82 10.2697 15.0801L16.6397 17.6801ZM23.3998 5.2C23.3998 3.76995 22.2299 2.6 20.7998 2.6C19.3698 2.6 18.1998 3.76995 18.1998 5.2C18.1998 6.63005 19.3698 7.8 20.7998 7.8C22.2299 7.8 23.3998 6.63005 23.3998 5.2ZM5.19983 16.9C3.76978 16.9 2.59982 15.7301 2.59982 14.3C2.59982 12.87 3.76978 11.7 5.19983 11.7C6.62987 11.7 7.79983 12.87 7.79983 14.3C7.79983 15.7301 6.62987 16.9 5.19983 16.9ZM18.1998 20.8C18.1998 22.2301 19.3698 23.4 20.7998 23.4C22.2299 23.4 23.3998 22.2301 23.3998 20.8C23.3998 19.37 22.2299 18.2 20.7998 18.2C19.3698 18.2 18.1998 19.37 18.1998 20.8Z"/>
</symbol><symbol viewBox="0 0 38 22" id="icon_slider-down" xmlns="http://www.w3.org/2000/svg">
<path fill-rule="evenodd" clip-rule="evenodd" d="M35.6318 0.74707L37.7532 2.86839L19.3684 21.2532L19.0001 20.8851L18.6318 21.2532L0.24707 2.86839L2.36839 0.74707L19.0001 17.3781L35.6318 0.74707Z"/>
</symbol><symbol viewBox="0 0 23 14" id="icon_slider-left" xmlns="http://www.w3.org/2000/svg">
<path fill-rule="evenodd" clip-rule="evenodd" d="M22.3999 6.29564L2.78828 6.29564L9.09745 0L6.99675 0L-9.72748e-05 6.99498L6.99675 14H9.09745L2.78828 7.7L22.3999 7.7V6.29564Z"/>
</symbol><symbol viewBox="0 0 23 14" id="icon_slider-right" xmlns="http://www.w3.org/2000/svg">
<path fill-rule="evenodd" clip-rule="evenodd" d="M0 6.29564L19.6116 6.29564L13.3025 0L15.4032 0L22.4 6.99498L15.4032 14H13.3025L19.6116 7.7L0 7.7L0 6.29564Z"/>
</symbol><symbol viewBox="0 0 38 22" id="icon_slider-up" xmlns="http://www.w3.org/2000/svg">
<path fill-rule="evenodd" clip-rule="evenodd" d="M35.6318 21.2529L37.7532 19.1316L19.3684 0.746834L19.0001 1.11493L18.6318 0.746834L0.24707 19.1316L2.36839 21.2529L19.0001 4.62193L35.6318 21.2529Z"/>
</symbol><symbol viewBox="0 0 31 31" id="icon_spoller" xmlns="http://www.w3.org/2000/svg">
<path fill-rule="evenodd" clip-rule="evenodd" d="M17 0H14V14H0V17H14V31H17V17H31V14H17V0Z"/>
</symbol><symbol viewBox="0 0 9 13" id="icon_tippy" xmlns="http://www.w3.org/2000/svg">
<path d="M3.90356 8.288C3.90356 7.89333 3.96756 7.54667 4.09556 7.248C4.22356 6.94933 4.3889 6.68267 4.59156 6.448C4.79423 6.21333 5.00756 5.99467 5.23156 5.792C5.46623 5.58933 5.6849 5.392 5.88756 5.2C6.09023 5.008 6.25556 4.80533 6.38356 4.592C6.51156 4.37867 6.57556 4.13867 6.57556 3.872C6.57556 3.424 6.39423 3.06133 6.03156 2.784C5.6689 2.50667 5.18356 2.368 4.57556 2.368C3.9889 2.368 3.4769 2.47467 3.03956 2.688C2.6129 2.90133 2.25556 3.20533 1.96756 3.6L0.415563 2.592C0.863563 1.984 1.45023 1.50933 2.17556 1.168C2.9009 0.815999 3.75956 0.639999 4.75156 0.639999C5.53023 0.639999 6.2129 0.757333 6.79956 0.992C7.38623 1.216 7.8449 1.54667 8.17556 1.984C8.50623 2.41067 8.67156 2.93333 8.67156 3.552C8.67156 3.97867 8.60223 4.352 8.46356 4.672C8.33556 4.992 8.1649 5.27467 7.95156 5.52C7.7489 5.75467 7.53023 5.97867 7.29556 6.192C7.0609 6.39467 6.8369 6.59733 6.62356 6.8C6.4209 7.00267 6.25556 7.22133 6.12756 7.456C5.99956 7.69067 5.93556 7.968 5.93556 8.288H3.90356ZM4.92756 12.112C4.55423 12.112 4.2449 11.9893 3.99956 11.744C3.7649 11.4987 3.64756 11.2053 3.64756 10.864C3.64756 10.5227 3.7649 10.2347 3.99956 10C4.2449 9.75467 4.55423 9.632 4.92756 9.632C5.3009 9.632 5.6049 9.75467 5.83956 10C6.07423 10.2347 6.19156 10.5227 6.19156 10.864C6.19156 11.2053 6.07423 11.4987 5.83956 11.744C5.6049 11.9893 5.3009 12.112 4.92756 12.112Z"/>
</symbol><symbol viewBox="0 0 16 16" id="input_clear" xmlns="http://www.w3.org/2000/svg">
<path fill-rule="evenodd" clip-rule="evenodd" d="M8 0C3.6 0 0 3.6 0 8C0 12.4 3.6 16 8 16C12.4 16 16 12.4 16 8C16 3.6 12.4 0 8 0ZM12 11.0494L10.88 12.2353L8 9.18588L5.12 12.2353L4 11.0494L6.88 8L4 4.95059L5.12 3.76471L8 6.81412L10.88 3.76471L12 4.95059L9.12 8L12 11.0494Z"/>
</symbol><symbol viewBox="0 0 77 14" id="logo_salt" xmlns="http://www.w3.org/2000/svg">
<path fill-rule="evenodd" clip-rule="evenodd" d="M32.7048 10.9764C34.2224 11.0205 35.7244 10.6559 37.0571 9.91985C37.1285 9.8802 37.2046 9.85222 37.3061 9.80557C37.673 10.5339 37.8597 11.3415 37.8501 12.159C37.8616 13.0733 37.8501 13.0919 36.9902 13.3741C35.5422 13.8278 34.028 14.0267 32.5134 13.9619C30.8998 13.9293 29.376 13.619 27.9883 12.77C26.3377 11.7718 25.4156 10.2767 25.1298 8.39213C24.8566 6.89013 25.0167 5.34034 25.5908 3.92792C26.453 1.89406 28.0528 0.760515 30.1391 0.289369C32.6121 -0.288017 35.2057 0.00401796 37.4928 1.11737C37.6103 1.17102 37.7763 1.30396 37.7763 1.39959C37.8041 2.50724 37.5391 3.60231 37.0087 4.57166C36.2249 4.17282 35.4849 3.74832 34.7034 3.40546C33.7746 2.99609 32.7409 2.89722 31.7527 3.12324C30.1321 3.49409 29.1593 4.67895 29.104 6.45157C29.0804 7.09895 29.1455 7.74653 29.2976 8.3758C29.7057 9.9665 31.0266 10.9414 32.7071 10.9858L32.7048 10.9764ZM73.0235 8.54374C72.9516 8.3518 72.8262 8.18509 72.6625 8.06379C72.4989 7.9425 72.3039 7.87183 72.1014 7.86034C71.0733 7.82536 70.0428 7.86034 68.9939 7.86034V10.9088C70.052 10.9088 71.0848 10.9508 72.1106 10.8831C72.2748 10.8493 72.4307 10.7831 72.5696 10.6882C72.7084 10.5934 72.8274 10.4718 72.9198 10.3304C73.0905 10.07 73.1895 9.7682 73.2065 9.45619C73.2235 9.14418 73.158 8.83322 73.0166 8.5554L73.0235 8.54374ZM76.4122 11.4966C75.7206 12.9846 74.4435 13.6774 72.8644 13.7123C70.4808 13.7683 68.0972 13.7287 65.7182 13.731C65.3862 13.731 65.1903 13.5771 65.1903 13.2459C65.1903 10.7362 65.1903 8.22575 65.1903 5.71454C65.1672 5.49762 65.1557 5.29237 65.1534 5.10578C65.1547 4.77476 65.1246 4.44438 65.0635 4.11917C65.0362 3.85923 64.9121 3.61955 64.7164 3.44886C64.5207 3.27816 64.2681 3.18926 64.01 3.20021C63.3184 3.17688 62.6061 3.20021 61.873 3.20021C61.873 3.89993 61.8846 4.59965 61.873 5.29937C61.8431 6.99969 61.7393 8.69301 61.2667 10.335C60.8818 11.6738 60.2547 12.8633 58.89 13.4325C58.37 13.6436 57.8196 13.7681 57.2602 13.801C56.4419 13.8476 55.6166 13.7776 54.7798 13.7567C54.5266 12.7605 54.5393 11.7141 54.8167 10.7245C55.1822 10.7433 55.5484 10.7433 55.914 10.7245C56.336 10.7018 56.7413 10.5504 57.0766 10.2902C57.412 10.0301 57.6616 9.67325 57.7928 9.26678C58.0676 8.49036 58.2472 7.68276 58.3276 6.86208C58.4175 5.7122 58.3506 4.55067 58.3506 3.2935H55.9301C55.8333 2.48183 55.7641 2.32322 55.7641 1.84975C55.732 1.32925 55.7881 0.807033 55.9301 0.305696H56.428C59.1943 0.305696 61.9606 0.284704 64.7384 0.31969C65.4236 0.317351 66.1045 0.430059 66.7532 0.653224C68.0972 1.14303 68.6551 2.2859 68.8717 3.62004C68.9328 4.02918 68.9628 4.44244 68.9617 4.85621V4.98916C68.9706 5.00423 68.9769 5.02083 68.9801 5.03814C70.0636 5.03814 71.0963 5.02181 72.1268 5.03814C72.7177 5.03636 73.3078 5.0863 73.8903 5.18741C75.3748 5.49062 76.32 6.40259 76.6865 7.886C77.0201 9.08074 76.9253 10.3563 76.4191 11.4872L76.4122 11.4966ZM49.5907 6.15536C49.4708 4.54367 48.6686 3.16289 46.5939 3.0556C45.0401 2.9763 43.846 3.53607 43.3389 5.24106C43.2026 5.81928 43.1253 6.41015 43.1084 7.00435C43.1099 7.29195 43.1269 7.57926 43.1591 7.86501C43.3343 9.41372 43.9797 10.7339 45.8585 10.9484C47.5068 11.135 49.0328 10.5706 49.4731 8.61604C49.6326 7.80707 49.6738 6.97877 49.5953 6.15769L49.5907 6.15536ZM51.9905 11.8324C51.0446 12.8584 49.7915 13.5412 48.4242 13.7753C46.2781 14.1881 44.1757 14.0902 42.2208 12.9893C40.425 11.9747 39.4937 10.3583 39.1848 8.35948C38.9355 6.92374 39.0815 5.44627 39.6067 4.08885C40.3836 2.15063 41.822 0.923782 43.8138 0.384997C45.8746 -0.170115 47.9355 -0.118801 49.9134 0.74652C52.0112 1.66082 53.173 3.33315 53.5672 5.5606C53.6502 6.02708 53.6641 6.52154 53.7102 6.99969C53.6802 8.81196 53.233 10.468 51.9858 11.8371"/>
<rect y="5" width="20" height="0.999965"/>
<rect y="8" width="20" height="0.999965"/>
</symbol><symbol viewBox="0 0 24 29" id="menu-item-1" xmlns="http://www.w3.org/2000/svg">
<path fill-rule="evenodd" clip-rule="evenodd" d="M7.5 0C9.15685 0 10.5 1.34315 10.5 3V10C10.5 11.6569 9.15685 13 7.5 13H3.5C1.84315 13 0.5 11.6569 0.5 10V3C0.5 1.34315 1.84315 0 3.5 0H7.5ZM7.5 2.5H3.5C3.25454 2.5 3.05039 2.67688 3.00806 2.91012L3 3V10C3 10.2455 3.17688 10.4496 3.41012 10.4919L3.5 10.5H7.5C7.74546 10.5 7.94961 10.3231 7.99194 10.0899L8 10V3C8 2.75454 7.82312 2.55039 7.58988 2.50806L7.5 2.5ZM7.5 16C9.15685 16 10.5 17.3431 10.5 19V26C10.5 27.6569 9.15685 29 7.5 29H3.5C1.84315 29 0.5 27.6569 0.5 26V19C0.5 17.3431 1.84315 16 3.5 16H7.5ZM7.5 18.5H3.5C3.25454 18.5 3.05039 18.6769 3.00806 18.9101L3 19V26C3 26.2455 3.17688 26.4496 3.41012 26.4919L3.5 26.5H7.5C7.74546 26.5 7.94961 26.3231 7.99194 26.0899L8 26V19C8 18.7545 7.82312 18.5504 7.58988 18.5081L7.5 18.5ZM23.5 3C23.5 1.34315 22.1569 0 20.5 0H16.5C14.8431 0 13.5 1.34315 13.5 3V10C13.5 11.6569 14.8431 13 16.5 13H20.5C22.1569 13 23.5 11.6569 23.5 10V3ZM16.5 2.5H20.5L20.5899 2.50806C20.8231 2.55039 21 2.75454 21 3V10L20.9919 10.0899C20.9496 10.3231 20.7455 10.5 20.5 10.5H16.5L16.4101 10.4919C16.1769 10.4496 16 10.2455 16 10V3L16.0081 2.91012C16.0504 2.67688 16.2545 2.5 16.5 2.5ZM20.5 16C22.1569 16 23.5 17.3431 23.5 19V26C23.5 27.6569 22.1569 29 20.5 29H16.5C14.8431 29 13.5 27.6569 13.5 26V19C13.5 17.3431 14.8431 16 16.5 16H20.5ZM20.5 18.5H16.5C16.2545 18.5 16.0504 18.6769 16.0081 18.9101L16 19V26C16 26.2455 16.1769 26.4496 16.4101 26.4919L16.5 26.5H20.5C20.7455 26.5 20.9496 26.3231 20.9919 26.0899L21 26V19C21 18.7545 20.8231 18.5504 20.5899 18.5081L20.5 18.5Z"/>
</symbol><symbol viewBox="0 0 24 28" id="menu-item-2" xmlns="http://www.w3.org/2000/svg">
<path fill-rule="evenodd" clip-rule="evenodd" d="M14.701 13.7431C13.3677 12.3173 12.0842 10.9448 10.769 9.53839V13.7431H14.701ZM8.00951 5.00131C8.58038 5.00131 9.13054 4.98891 9.67944 5.00957C9.82475 5.01508 10.0063 5.08464 10.1036 5.18826C12.8414 8.10331 15.5721 11.0249 18.2949 13.954C18.4065 14.0741 18.4846 14.2761 18.4857 14.4406C18.4988 16.3466 18.4941 18.2527 18.4941 20.1588C18.4941 20.2684 18.4941 20.378 18.4941 20.4788H20.9747V2.51044H8.00951V5.00131ZM3.00536 25.4841H15.9784V16.2304H8.23766V7.5154H3.00536V25.4841ZM5.50061 5.00131C5.50061 4.02134 5.4998 3.08526 5.50086 2.14912C5.5023 0.836819 6.33651 0.000915857 7.648 0.000665418C12.22 -0.000148509 16.792 -0.000336338 21.364 0.000790637C22.6543 0.00110369 23.4936 0.842266 23.4938 2.13516C23.4947 8.3746 23.4946 14.614 23.4938 20.8535C23.4937 22.1636 22.6567 22.9965 21.3425 22.9979C20.4069 22.9989 19.4713 22.998 18.4941 22.998C18.4941 23.1297 18.4941 23.24 18.4941 23.3503C18.4941 24.2149 18.4977 25.0794 18.4932 25.944C18.4869 27.1322 17.628 27.9967 16.4404 27.9976C11.8163 28.0009 7.19226 28.0006 2.56816 27.9978C1.36129 27.9971 0.502097 27.1358 0.501659 25.9267C0.499405 19.6456 0.49953 13.3645 0.501534 7.08339C0.50191 5.85687 1.35973 5.00556 2.58969 5.00187C3.54612 4.99905 4.50261 5.00131 5.50061 5.00131V5.00131Z"/>
</symbol><symbol viewBox="0 0 27 26" id="menu-item-3" xmlns="http://www.w3.org/2000/svg">
<path fill-rule="evenodd" clip-rule="evenodd" d="M11.5084 2.82152L9.38706 0.700195L6.12425 3.9622L2.86157 0.700195L0.740254 2.82152L4.00225 6.0842L0.740254 9.347L2.86157 11.4683L6.12425 8.2052L9.38706 11.4683L11.5084 9.347L8.24525 6.0842L11.5084 2.82152ZM26.1403 7.7002V4.7002L21.9238 4.69963L21.9237 0.700195H18.9237L18.9235 4.70033L14.7403 4.7002V7.7002L18.9235 7.69988L18.9237 12.1002H21.9237L21.9238 7.70059L26.1403 7.7002ZM11.8243 19.0616V22.0616H0.424316V19.0616H11.8243ZM25.2243 24.9457V21.9457H22.1744V24.9457H25.2243ZM24.0189 15.1776L26.1403 17.2989L17.4935 25.9457L15.3721 23.8244L24.0189 15.1776ZM19.5061 19.0616V16.0616H16.4562V19.0616H19.5061Z"/>
</symbol><symbol viewBox="0 0 24 26" id="menu-item-4" xmlns="http://www.w3.org/2000/svg">
<path fill-rule="evenodd" clip-rule="evenodd" d="M8.0885 0.592449C9.7633 0.850111 11.2228 1.7077 12.467 3.16521C14.1521 1.67854 15.7367 0.820793 17.221 0.592449C18.7684 0.354378 20.5475 0.528737 22.558 1.11553C23.4116 1.3627 23.9989 2.14409 24 3.03276V22.3548C24.0013 23.4593 23.107 24.3559 22.0024 24.3572L21.8783 24.3537C20.3334 24.2617 18.7446 24.3413 17.1119 24.5924C16.0137 24.7614 14.99 25.1342 14.0408 25.7109C13.2774 26.1746 12.3267 26.0677 11.687 25.511C11.6253 25.5171 11.5624 25.52 11.4988 25.52C11.1687 25.52 10.8438 25.4378 10.5534 25.2808C9.92058 24.9403 9.21944 24.7108 8.44995 24.5924C6.71776 24.326 4.77753 24.2613 2.62926 24.3984C1.527 24.4699 0.575568 23.6342 0.504181 22.5319L0.5 22.4053V3.06083C0.500354 2.16215 1.10009 1.37405 1.96629 1.13463C4.25802 0.497831 6.29876 0.317105 8.0885 0.592449ZM17.6011 3.06338C16.5218 3.22943 15.1728 4.01724 13.6147 5.50542L13.5 5.61577V23.1538L13.8779 22.9722C14.6531 22.6181 15.4642 22.3586 16.3075 22.1952L16.7318 22.1215C18.311 21.8786 19.8603 21.7805 21.3738 21.8283L21.5 21.8338V3.41477L21.153 3.32649C19.7759 2.99133 18.592 2.91094 17.6011 3.06338ZM10.9086 5.21962L11 5.34777V22.7278L10.704 22.609C10.1089 22.3842 9.48357 22.2221 8.83009 22.1215L8.30135 22.0465C6.70033 21.8381 4.96622 21.7799 3.09777 21.8685L2.999 21.8728L3 3.44577L3.40672 3.34609C5.05186 2.96245 6.48463 2.87511 7.70836 3.06338L7.93078 3.10367C9.03421 3.33431 10.0084 4.00488 10.9086 5.21962Z"/>
</symbol><symbol viewBox="0 0 26 23" id="menu-item-5" xmlns="http://www.w3.org/2000/svg">
<path fill-rule="evenodd" clip-rule="evenodd" d="M18.3507 1.47101C17.9892 0.868598 17.3382 0.5 16.6357 0.5H10.0144C9.33094 0.5 8.69482 0.848989 8.3276 1.4254L6.32133 4.5746C5.95412 5.15101 5.31799 5.5 4.63455 5.5H2.76807C1.6635 5.5 0.768066 6.39543 0.768066 7.5V21C0.768066 22.1046 1.6635 23 2.76807 23H23.7321C24.8367 23 25.7321 22.1046 25.7321 21V7.5C25.7321 6.39543 24.8367 5.5 23.7321 5.5H21.9004C21.1979 5.5 20.5469 5.1314 20.1855 4.52899L18.3507 1.47101ZM10.2881 3H16.3521L18.0417 5.81523L18.1685 6.01456C19.0018 7.25152 20.3988 8 21.9004 8H23.2321V20.5H3.26807V8H4.63455L4.86435 7.99414C6.31391 7.9202 7.64489 7.14993 8.42981 5.91786L10.2881 3ZM13.2501 7C16.5638 7 19.2501 9.68629 19.2501 13C19.2501 16.3137 16.5638 19 13.2501 19C9.93639 19 7.2501 16.3137 7.2501 13C7.2501 9.68629 9.93639 7 13.2501 7ZM9.7501 13C9.7501 11.067 11.3171 9.5 13.2501 9.5C15.1831 9.5 16.7501 11.067 16.7501 13C16.7501 14.933 15.1831 16.5 13.2501 16.5C11.3171 16.5 9.7501 14.933 9.7501 13Z"/>
</symbol></svg>